<?xml version="1.0" encoding="UTF-8"?>
<svg id="Layer_1" data-name="Layer 1" xmlns="http://www.w3.org/2000/svg" viewBox="0 0 41.2 45.95">
  <defs>
    <style>
      .cls-1 {
        fill: #1464af;
      }
    </style>
  </defs>
  <path class="cls-1" d="M13.93,35.43c.99.58,1.8,1.04,2.6,1.51.77.45,1.52.9,2.3,1.33,1.17.65,2.38.66,3.53-.01,3.39-1.97,6.76-3.97,10.14-5.96,1.18-.7,1.79-1.76,1.8-3.14.01-3.93.02-7.86,0-11.8,0-1.38-.67-2.42-1.85-3.1-3.25-1.89-6.52-3.75-9.75-5.66-1.4-.82-2.74-.8-4.11,0-3.26,1.88-6.52,3.75-9.77,5.63-1.31.75-1.93,1.9-1.94,3.4,0,1.7.01,3.39.01,5.09,0,5.09,0,10.18,0,15.27,0,.21-.03.42-.04.62-.08.04-.15.09-.17.08-1.61-1-3.31-1.89-4.81-3.04C.58,34.65.02,33.12.02,31.49,0,25.75-.02,20.01.03,14.28c.02-2.31,1.18-4.06,3.15-5.21,3.83-2.23,7.68-4.42,11.52-6.63.86-.49,1.72-1,2.58-1.5,2.19-1.26,4.4-1.26,6.58-.02,4.6,2.62,9.17,5.28,13.77,7.88,2.4,1.36,3.58,3.35,3.56,6.13-.04,5.28-.04,10.56,0,15.84.03,2.72-1.09,4.7-3.4,6.06-4.63,2.72-9.26,5.45-13.89,8.16-2.18,1.27-4.39,1.26-6.58,0-.96-.55-1.91-1.09-2.84-1.68-.24-.15-.52-.47-.53-.72-.04-2.31-.02-4.62-.02-7.17Z"/>
  <path class="cls-1" d="M27.28,23.37c0,1.05-.03,2.1.01,3.15.02.49-.12.79-.56,1.04-1.86,1.07-3.71,2.16-5.54,3.26-.38.23-.7.27-1.1.03-1.86-1.12-3.75-2.19-5.6-3.33-.28-.17-.53-.61-.54-.93-.05-2.15,0-4.3-.03-6.45,0-.53.19-.8.66-1.05,1.84-1,3.66-2.03,5.46-3.1.46-.27.79-.26,1.24,0,1.8,1.06,3.63,2.07,5.42,3.15.28.17.53.6.55.93.07,1.1.03,2.2.03,3.31,0,0,0,0,0,0Z"/>
</svg>